<svg width="45" height="37" viewBox="0 0 45 37" fill="none" xmlns="http://www.w3.org/2000/svg">
<path d="M22.6018 0C18.2107 0 13.9182 1.08009 10.2672 3.10371C6.61612 5.12731 3.77041 8.00353 2.09002 11.3687C0.409613 14.7338 -0.030055 18.4367 0.826604 22.0091C1.68327 25.5816 3.7978 28.863 6.90276 31.4384C10.0077 34.014 13.9638 35.768 18.2705 36.4788C22.5772 37.1893 27.0412 36.8246 31.0982 35.4309C35.1551 34.0368 38.6222 31.6763 41.062 28.6478C43.5016 25.6193 44.8036 22.0587 44.8036 18.4163C44.8036 13.532 42.4646 8.84771 38.3009 5.39401C34.1372 1.94028 28.4902 0 22.6018 0ZM36.2399 21.1077C36.2399 21.476 34.2355 21.5286 34.2355 21.897C34.2355 22.2653 36.2179 22.7651 36.2179 23.273C36.2179 23.8938 32.1327 23.9858 32.1327 24.6068C32.1327 25.2699 35.2314 25.0645 35.2314 25.7828C35.2314 26.63 27.4482 26.2353 27.4482 27.1167C27.4482 27.4533 28.4442 27.5929 29.6906 27.7034C30.3757 27.7664 30.2265 28.0453 29.8366 28.2296C27.6576 29.3323 25.1544 29.9159 22.6018 29.9159C20.0493 29.9159 17.5461 29.3323 15.3672 28.2296C14.9802 28.0323 14.828 27.7534 15.5131 27.7034C16.7595 27.5929 17.7587 27.4403 17.7587 27.1167C17.7587 26.2353 9.97214 26.63 9.97214 25.7828C9.97214 25.0645 13.0741 25.2566 13.0741 24.6068C13.0741 23.9858 8.98581 23.8938 8.98581 23.273C8.98581 22.7651 10.9713 22.2732 10.9713 21.897C10.9713 21.5207 8.96359 21.4786 8.96359 21.1077C8.96359 20.7367 10.4289 20.4973 10.4289 20.2342C10.4289 19.737 8.72569 20.642 8.72569 18.4163C8.72569 15.3636 10.1877 12.4359 12.79 10.2774C15.3923 8.11878 18.9216 6.9061 22.6018 6.9061C26.282 6.9061 29.8115 8.11878 32.4138 10.2774C35.016 12.4359 36.4778 15.3636 36.4778 18.4163C36.4778 20.642 34.7748 19.7317 34.7748 20.2342C34.7748 20.4973 36.2399 20.7104 36.2399 21.1077Z" fill="#2563EB"/>
</svg>
